<?xml version="1.0" encoding="UTF-8" standalone="no"?>
<svg
   xmlns:dc="http://purl.org/dc/elements/1.1/"
   xmlns:cc="http://creativecommons.org/ns#"
   xmlns:rdf="http://www.w3.org/1999/02/22-rdf-syntax-ns#"
   xmlns:svg="http://www.w3.org/2000/svg"
   xmlns="http://www.w3.org/2000/svg"
   xmlns:sodipodi="http://sodipodi.sourceforge.net/DTD/sodipodi-0.dtd"
   xmlns:inkscape="http://www.inkscape.org/namespaces/inkscape"
   sodipodi:docname="scryfalljs.svg"
   id="svg46"
   version="1.1"
   viewBox="0 0 460 460"
   height="460"
   width="460"
   class=""
   focusable="false"
   aria-hidden="true"
   inkscape:version="0.92.2 (5c3e80d, 2017-08-06)"
   inkscape:export-filename="C:\Users\Ryan\Pictures\scryfalljs.png"
   inkscape:export-xdpi="96"
   inkscape:export-ydpi="96">
  <metadata
     id="metadata52">
    <rdf:RDF>
      <cc:Work
         rdf:about="">
        <dc:format>image/svg+xml</dc:format>
        <dc:type
           rdf:resource="http://purl.org/dc/dcmitype/StillImage" />
        <dc:title></dc:title>
      </cc:Work>
    </rdf:RDF>
  </metadata>
  <defs
     id="defs50" />
  <sodipodi:namedview
     inkscape:current-layer="svg46"
     inkscape:window-maximized="0"
     inkscape:window-y="1000"
     inkscape:window-x="6471"
     inkscape:cy="247.38383"
     inkscape:cx="237.83042"
     inkscape:zoom="1.8434783"
     showgrid="false"
     id="namedview48"
     inkscape:window-height="405"
     inkscape:window-width="732"
     inkscape:pageshadow="2"
     inkscape:pageopacity="0"
     guidetolerance="10"
     gridtolerance="10"
     objecttolerance="10"
     borderopacity="1"
     bordercolor="#666666"
     pagecolor="#ffffff" />
  <g
     transform="rotate(-180,260,259)"
     id="g44"
     inkscape:export-xdpi="96"
     inkscape:export-ydpi="96"
     style="fill:none;fill-rule:evenodd">
    <circle
       cx="290"
       cy="288"
       r="230"
       id="circle32"
       style="opacity:0.08999999;fill:#000000"
       inkscape:export-xdpi="96"
       inkscape:export-ydpi="96" />
    <path
       d="m 279.508,112.547 -0.028,361.84 43.137,6.808 56.715,-13.23 28.54,-72.547 -28.044,-178.926 -31.887,-113.004"
       id="path34"
       style="fill:#a9bbef;fill-opacity:1"
       inkscape:connector-curvature="0" />
    <path
       d="m 281.57,100.633 -2.457,383.13 -67.972,-21.888 13.9,-355.852"
       id="path36"
       style="fill:#718ba6;fill-opacity:1"
       inkscape:connector-curvature="0" />
    <path
       d="m 207.05,113.316 v 344.032 c 0,0 -119.686,-62.848 -113.662,-174.305 C 99.41,171.586 207.05,113.316 207.05,113.316 Z"
       id="path38"
       style="fill:#495e8c;fill-opacity:1"
       inkscape:connector-curvature="0" />
    <path
       d="m 237.375,107.21 -30.603,4.35 c 0,0 -20.682,10.42 -37.922,25.5 -75.19,167.948 108.332,115.1 -12.725,286.69 50.647,47.86 72.293,41.137 72.293,41.137 l 8.957,-357.676 z"
       id="path40"
       inkscape:export-xdpi="96"
       inkscape:export-ydpi="96"
       style="fill:#18354b;fill-opacity:1"
       inkscape:connector-curvature="0" />
    <path
       d="m 343.058,89.985 c -109.36,-29.303 -221.77,35.597 -251.073,144.957 -29.303,109.36 35.597,221.77 144.957,251.073 109.36,29.303 221.77,-35.597 251.073,-144.957 29.303,-109.36 -35.597,-221.77 -144.957,-251.073 z m -86.716,361.965 0.276,0.71 c 1.172,3.187 3.562,5.776 6.644,7.2 3.082,1.422 6.603,1.562 9.788,0.387 l 48.355,-17.774 c 3.184,-1.175 6.706,-1.035 9.787,0.388 3.082,1.424 5.472,4.013 6.644,7.2 l 0.19,0.56 c 2.105,5.852 -0.304,12.37 -5.71,15.448 -93.23,22.17 -187.912,-30.724 -217.912,-121.736 -30,-91.012 14.67,-189.84 102.81,-227.453 5.144,0.502 9.544,3.91 11.32,8.762 2.578,6.977 10.317,10.55 17.3,7.99 l 15.73,-5.803 c 3.186,-1.176 6.707,-1.036 9.79,0.387 3.08,1.423 5.47,4.012 6.643,7.198 l 0.19,0.56 c 1.174,3.185 1.034,6.706 -0.39,9.788 -1.422,3.082 -4.01,5.472 -7.197,6.644 l -109.46,40.366 c -3.187,1.172 -5.777,3.562 -7.2,6.644 -1.422,3.082 -1.562,6.603 -0.388,9.788 l 0.19,0.56 c 1.172,3.186 3.562,5.775 6.643,7.198 3.082,1.423 6.603,1.563 9.788,0.388 l 80.06,-29.483 c 3.184,-1.174 6.705,-1.034 9.787,0.388 3.082,1.423 5.472,4.013 6.644,7.2 l 0.19,0.56 c 1.173,3.184 1.034,6.705 -0.39,9.787 -1.422,3.08 -4.01,5.47 -7.197,6.643 l -127.814,47.08 c -3.186,1.17 -5.776,3.56 -7.2,6.643 -1.42,3.082 -1.56,6.603 -0.387,9.788 l 0.19,0.56 c 1.172,3.186 3.562,5.775 6.643,7.198 3.08,1.423 6.602,1.563 9.787,0.388 L 297.72,226.4 c 3.184,-1.175 6.705,-1.036 9.787,0.387 3.082,1.423 5.472,4.012 6.644,7.198 l 0.467,1.27 c 1.174,3.186 1.035,6.707 -0.388,9.79 -1.424,3.08 -4.014,5.47 -7.2,6.643 l -113,41.54 c -3.187,1.172 -5.777,3.562 -7.2,6.644 -1.422,3.08 -1.562,6.603 -0.387,9.787 l 0.19,0.56 c 1.17,3.185 3.56,5.775 6.643,7.198 3.08,1.423 6.603,1.562 9.787,0.388 l 51.798,-19.06 c 3.186,-1.174 6.707,-1.034 9.79,0.39 3.08,1.422 5.47,4.01 6.643,7.197 l 0.19,0.56 c 1.174,3.185 1.034,6.706 -0.39,9.788 -1.422,3.083 -4.01,5.473 -7.197,6.644 l -89.085,32.754 c -3.185,1.17 -5.774,3.56 -7.197,6.643 -1.423,3.083 -1.562,6.604 -0.388,9.79 l 0.19,0.56 c 1.17,3.185 3.56,5.775 6.643,7.197 3.082,1.423 6.603,1.563 9.788,0.388 L 304.563,336.3 c 3.185,-1.173 6.706,-1.034 9.788,0.39 3.083,1.422 5.473,4.01 6.644,7.197 l 0.19,0.56 c 1.174,3.185 1.035,6.706 -0.388,9.788 -1.423,3.082 -4.013,5.472 -7.198,6.644 l -74.954,27.54 c -3.186,1.17 -5.776,3.56 -7.2,6.643 -1.422,3.082 -1.56,6.603 -0.387,9.788 l 0.19,0.56 c 1.172,3.187 3.562,5.777 6.643,7.2 3.082,1.422 6.603,1.562 9.788,0.387 l 94.147,-34.537 c 3.185,-1.175 6.706,-1.035 9.788,0.388 3.082,1.423 5.472,4.012 6.644,7.198 2.428,6.58 -0.893,13.887 -7.447,16.384 l -86.903,33.168 c -3.18,1.18 -5.764,3.574 -7.18,6.658 -1.414,3.083 -1.547,6.603 -0.367,9.784 l -0.018,-0.09 z"
       id="path42"
       inkscape:connector-curvature="0"
       style="fill:#ffffff" />
  </g>
</svg>
